<svg xmlns="http://www.w3.org/2000/svg" viewBox="0 150 1000 700" width="528" height="528" preserveAspectRatio="xMidYMid meet">
  <g transform="matrix(1, 0, 0, 1, 500.117, 443.937)">
    <path fill="rgb(196,162,136)" fill-opacity="1" d="M251.423,294.53 C251.423,294.53 -251.423,294.53 -251.423,294.53 C-251.423,294.53 -251.423,-252.647 -251.423,-252.647 C-251.423,-275.778 -232.671,-294.53 -209.54,-294.53 C-209.54,-294.53 251.423,-294.53 251.423,-294.53 C251.423,-294.53 251.423,294.53 251.423,294.53Z"/>
  </g>
  <g transform="matrix(1, 0, 0, 1, 500.117, 443.937)">
    <path fill="rgb(181,149,124)" fill-opacity="1" d="M251.423,294.53 C251.423,294.53 -251.423,294.53 -251.423,294.53 C-251.423,294.53 -251.423,-252.647 -251.423,-252.647 C-251.423,-275.778 -232.671,-294.53 -209.54,-294.53 C-25.88,-150.341 131.213,40.035 251.423,294.53Z"/>
  </g>
  <g transform="matrix(1, 0, 0, 1, 500.117, 738.468)">
    <path fill="rgb(168,118,118)" fill-opacity="1" d="M251.423,52.01 C251.423,52.01 -227.081,52.01 -227.081,52.01 C-240.525,52.01 -251.423,41.112 -251.423,27.668 C-251.423,27.668 -251.423,-27.668 -251.423,-27.668 C-251.423,-41.111 -240.525,-52.01 -227.081,-52.01 C-227.081,-52.01 251.423,-52.01 251.423,-52.01 C251.423,-52.01 251.423,52.01 251.423,52.01Z"/>
  </g>
  <g transform="matrix(1, 0, 0, 1, 513.505, 738.469)">
    <path fill="rgb(247,210,181)" fill-opacity="1" d="M238.034,-25.808 C238.034,-25.808 238.034,25.808 238.034,25.808 C238.034,25.808 -225.954,25.808 -225.954,25.808 C-232.628,25.808 -238.035,20.401 -238.035,13.727 C-238.035,13.727 -238.035,-13.727 -238.035,-13.727 C-238.035,-20.401 -232.628,-25.808 -225.954,-25.808 C-225.954,-25.808 238.034,-25.808 238.034,-25.808Z"/>
  </g>
  <g transform="matrix(1, 0, 0, 1, 513.505, 751.374)">
    <path fill="rgb(238,196,154)" fill-opacity="1" d="M238.034,-12.904 C238.034,-12.904 238.034,12.904 238.034,12.904 C238.034,12.904 -225.954,12.904 -225.954,12.904 C-232.628,12.904 -238.035,7.496 -238.035,0.823 C-238.035,0.823 -238.035,-0.824 -238.035,-0.824 C-238.035,-7.498 -232.628,-12.904 -225.954,-12.904 C-225.954,-12.904 238.034,-12.904 238.034,-12.904Z"/>
  </g>
  <g transform="matrix(1, 0, 0, 1, 500.117, 418.533)">
    <path fill="rgb(238,196,154)" fill-opacity="1" d="M20.862,-80.599 C20.862,-80.599 20.862,-183.196 20.862,-183.196 C20.862,-183.196 -20.862,-183.196 -20.862,-183.196 C-20.862,-183.196 -20.862,-80.599 -20.862,-80.599 C-20.862,-80.599 -94.194,-80.599 -94.194,-80.599 C-94.194,-80.599 -94.194,-38.877 -94.194,-38.877 C-94.194,-38.877 -20.862,-38.877 -20.862,-38.877 C-20.862,-38.877 -20.862,183.196 -20.862,183.196 C-20.862,183.196 20.862,183.196 20.862,183.196 C20.862,183.196 20.862,-38.877 20.862,-38.877 C20.862,-38.877 94.194,-38.877 94.194,-38.877 C94.194,-38.877 94.194,-80.599 94.194,-80.599 C94.194,-80.599 20.862,-80.599 20.862,-80.599Z"/>
  </g>
  <g transform="matrix(1, 0, 0, 1, 341.536, 790.477)">
    <path fill="rgb(190,158,132)" fill-opacity="1" d="M47.335,-58.93 C47.335,-58.93 47.335,58.93 47.335,58.93 C47.335,58.93 0,29.464 0,29.464 C0,29.464 -47.335,58.93 -47.335,58.93 C-47.335,58.93 -47.335,-58.93 -47.335,-58.93 C-47.335,-58.93 47.335,-58.93 47.335,-58.93Z"/>
  </g>
  <g transform="matrix(1, 0, 0, 1, 365.203, 790.477)">
    <path fill="rgb(181,149,124)" fill-opacity="1" d="M23.668,-58.93 C23.668,-58.93 23.668,58.93 23.668,58.93 C23.668,58.93 -23.668,29.464 -23.668,29.464 C-23.668,29.464 -23.668,-58.93 -23.668,-58.93 C-23.668,-58.93 23.668,-58.93 23.668,-58.93Z"/>
  </g>
</svg>